<?xml version="1.0" encoding="UTF-8"?>
<svg xmlns="http://www.w3.org/2000/svg" xmlns:xlink="http://www.w3.org/1999/xlink" fill-opacity="1" color-rendering="auto" color-interpolation="auto" stroke="black" text-rendering="auto" stroke-linecap="square" width="586" stroke-miterlimit="10" stroke-opacity="1" shape-rendering="auto" fill="black" stroke-dasharray="none" font-weight="normal" stroke-width="1" height="543" font-family="'Dialog'" font-style="normal" stroke-linejoin="miter" font-size="12" stroke-dashoffset="0" image-rendering="auto">
  <!--Generated by ySVG-->
  <defs id="genericDefs"/>
  <g>
    <defs id="defs1">
      <clipPath clipPathUnits="userSpaceOnUse" id="clipPath1">
        <path d="M0 0 L586 0 L586 543 L0 543 L0 0 Z"/>
      </clipPath>
      <clipPath clipPathUnits="userSpaceOnUse" id="clipPath2">
        <path d="M-217 -162 L369 -162 L369 381 L-217 381 L-217 -162 Z"/>
      </clipPath>
    </defs>
    <g fill="white" transform="translate(217,162)" stroke="white">
      <rect x="-217" y="-162" clip-path="url(#clipPath2)" width="586" height="543" stroke="none"/>
    </g>
    <g fill="rgb(252,160,0)" transform="matrix(1,0,0,1,217,162)" stroke="rgb(252,160,0)">
      <circle r="20.3333" clip-path="url(#clipPath2)" cx="302" cy="171" stroke="none"/>
      <text x="291.3301" y="175.7139" clip-path="url(#clipPath2)" fill="black" font-family="sans-serif" stroke="none" xml:space="preserve">1(2)</text>
      <rect x="326.3333" y="131.9655" clip-path="url(#clipPath2)" fill="silver" width="27.3555" height="18.7012" stroke="none"/>
    </g>
    <g font-family="sans-serif" font-weight="bold" transform="matrix(1,0,0,1,217,162)">
      <text xml:space="preserve" x="328.3333" y="146.03" clip-path="url(#clipPath2)" stroke="none">0.77</text>
    </g>
    <g stroke-miterlimit="1.45" transform="matrix(1,0,0,1,217,162)" stroke-linecap="butt">
      <circle fill="none" r="20.3333" clip-path="url(#clipPath2)" cx="302" cy="171"/>
    </g>
    <g fill="yellow" transform="matrix(1,0,0,1,217,162)" stroke="yellow">
      <circle r="14.5833" clip-path="url(#clipPath2)" cx="253" cy="-113" stroke="none"/>
      <text x="242.3301" y="-108.2861" clip-path="url(#clipPath2)" fill="black" font-family="sans-serif" stroke="none" xml:space="preserve">2(1)</text>
      <rect x="271.5833" y="-146.2845" clip-path="url(#clipPath2)" fill="silver" width="27.3555" height="18.7012" stroke="none"/>
    </g>
    <g font-family="sans-serif" font-weight="bold" transform="matrix(1,0,0,1,217,162)">
      <text xml:space="preserve" x="273.5833" y="-132.22" clip-path="url(#clipPath2)" stroke="none">0.48</text>
    </g>
    <g stroke-miterlimit="1.45" transform="matrix(1,0,0,1,217,162)" stroke-linecap="butt">
      <circle fill="none" r="14.5833" clip-path="url(#clipPath2)" cx="253" cy="-113"/>
    </g>
    <g fill="rgb(252,67,0)" transform="matrix(1,0,0,1,217,162)" stroke="rgb(252,67,0)">
      <circle r="22.6923" clip-path="url(#clipPath2)" cx="112" cy="343" stroke="none"/>
      <text x="101.3301" y="347.7139" clip-path="url(#clipPath2)" fill="black" font-family="sans-serif" stroke="none" xml:space="preserve">3(3)</text>
      <rect x="138.6923" y="301.6065" clip-path="url(#clipPath2)" fill="silver" width="27.3555" height="18.7012" stroke="none"/>
    </g>
    <g font-family="sans-serif" font-weight="bold" transform="matrix(1,0,0,1,217,162)">
      <text xml:space="preserve" x="140.6923" y="315.671" clip-path="url(#clipPath2)" stroke="none">0.88</text>
    </g>
    <g stroke-miterlimit="1.45" transform="matrix(1,0,0,1,217,162)" stroke-linecap="butt">
      <circle fill="none" r="22.6923" clip-path="url(#clipPath2)" cx="112" cy="343"/>
    </g>
    <g fill="rgb(252,164,0)" transform="matrix(1,0,0,1,217,162)" stroke="rgb(252,164,0)">
      <circle r="18.1429" clip-path="url(#clipPath2)" cx="-183" cy="305" stroke="none"/>
      <text x="-193.6699" y="309.7139" clip-path="url(#clipPath2)" fill="black" font-family="sans-serif" stroke="none" xml:space="preserve">4(2)</text>
      <rect x="-160.8571" y="268.156" clip-path="url(#clipPath2)" fill="silver" width="27.3555" height="18.7012" stroke="none"/>
    </g>
    <g font-family="sans-serif" font-weight="bold" transform="matrix(1,0,0,1,217,162)">
      <text xml:space="preserve" x="-158.8571" y="282.2204" clip-path="url(#clipPath2)" stroke="none">0.66</text>
    </g>
    <g stroke-miterlimit="1.45" transform="matrix(1,0,0,1,217,162)" stroke-linecap="butt">
      <circle fill="none" r="18.1429" clip-path="url(#clipPath2)" cx="-183" cy="305"/>
    </g>
    <g fill="rgb(252,0,0)" transform="matrix(1,0,0,1,217,162)" stroke="rgb(252,0,0)">
      <circle r="25" clip-path="url(#clipPath2)" cx="50" cy="88" stroke="none"/>
      <text x="39.3301" y="92.7139" clip-path="url(#clipPath2)" fill="black" font-family="sans-serif" stroke="none" xml:space="preserve">0(3)</text>
      <rect x="79" y="44.2988" clip-path="url(#clipPath2)" fill="silver" width="27.3555" height="18.7012" stroke="none"/>
    </g>
    <g font-family="sans-serif" font-weight="bold" transform="matrix(1,0,0,1,217,162)">
      <text xml:space="preserve" x="81" y="58.3633" clip-path="url(#clipPath2)" stroke="none">1.00</text>
    </g>
    <g stroke-miterlimit="1.45" transform="matrix(1,0,0,1,217,162)" stroke-linecap="butt">
      <circle fill="none" r="25" clip-path="url(#clipPath2)" cx="50" cy="88"/>
      <path fill="none" d="M255.4795 -98.629 L298.5429 150.9627" clip-path="url(#clipPath2)"/>
      <text x="283.1133" y="33.7139" clip-path="url(#clipPath2)" font-family="sans-serif" stroke="none" xml:space="preserve">1</text>
      <path fill="none" d="M242.6371 -102.7392 L67.765 70.4101" clip-path="url(#clipPath2)"/>
      <text x="148.1631" y="8.8488" clip-path="url(#clipPath2)" font-family="sans-serif" stroke="none" xml:space="preserve">1</text>
      <path fill="none" d="M106.6388 320.9501 L55.9064 112.2923" clip-path="url(#clipPath2)"/>
      <text x="87.2735" y="220.2139" clip-path="url(#clipPath2)" font-family="sans-serif" stroke="none" xml:space="preserve">0.3</text>
      <path fill="none" d="M282.6872 164.6391 L73.7452 95.8208" clip-path="url(#clipPath2)"/>
      <text x="167.6592" y="148.9704" clip-path="url(#clipPath2)" font-family="sans-serif" stroke="none" xml:space="preserve">0.5</text>
      <path fill="none" d="M-169.7233 292.635 L31.7054 105.0384" clip-path="url(#clipPath2)"/>
      <text x="-52.46" y="201.2139" clip-path="url(#clipPath2)" font-family="sans-serif" stroke="none" xml:space="preserve">0.5</text>
      <path fill="none" d="M-165.0058 307.3179 L89.4936 340.1009" clip-path="url(#clipPath2)"/>
      <text x="-43.8408" y="341.3965" clip-path="url(#clipPath2)" font-family="sans-serif" stroke="none" xml:space="preserve">0.5</text>
      <path fill="none" d="M128.823 327.7708 L286.9259 184.6461" clip-path="url(#clipPath2)"/>
      <text x="221.3291" y="261.7139" clip-path="url(#clipPath2)" font-family="sans-serif" stroke="none" xml:space="preserve">0.5</text>
    </g>
  </g>
</svg>
