<?xml version="1.0" encoding="UTF-8" standalone="no"?>
<svg
   xmlns:dc="http://purl.org/dc/elements/1.1/"
   xmlns:cc="http://creativecommons.org/ns#"
   xmlns:rdf="http://www.w3.org/1999/02/22-rdf-syntax-ns#"
   xmlns:svg="http://www.w3.org/2000/svg"
   xmlns="http://www.w3.org/2000/svg"
   xmlns:sodipodi="http://sodipodi.sourceforge.net/DTD/sodipodi-0.dtd"
   xmlns:inkscape="http://www.inkscape.org/namespaces/inkscape"
   style="fill-opacity:1; color-rendering:auto; color-interpolation:auto; stroke:black; text-rendering:auto; stroke-linecap:square; stroke-miterlimit:10; stroke-opacity:1; shape-rendering:auto; fill:black; stroke-dasharray:none; font-weight:normal; stroke-width:1; font-family:'Dialog'; font-style:normal; stroke-linejoin:miter; font-size:12; stroke-dashoffset:0; image-rendering:auto;"
   id="svg2"
   sodipodi:version="0.32"
   inkscape:version="0.46"
   width="210mm"
   height="297mm"
   sodipodi:docname="allInOne.svg"
   inkscape:output_extension="org.inkscape.output.svg.inkscape">
  <metadata
     id="metadata818">
    <rdf:RDF>
      <cc:Work
         rdf:about="">
        <dc:format>image/svg+xml</dc:format>
        <dc:type
           rdf:resource="http://purl.org/dc/dcmitype/StillImage" />
      </cc:Work>
    </rdf:RDF>
  </metadata>
  <sodipodi:namedview
     inkscape:window-height="1029"
     inkscape:window-width="1680"
     inkscape:pageshadow="2"
     inkscape:pageopacity="0.0"
     guidetolerance="10.0"
     gridtolerance="10.0"
     objecttolerance="10.0"
     borderopacity="1.0"
     bordercolor="#666666"
     pagecolor="#ffffff"
     id="base"
     showgrid="false"
     inkscape:zoom="0.80114697"
     inkscape:cx="917.96961"
     inkscape:cy="-35.306523"
     inkscape:window-x="-4"
     inkscape:window-y="-4"
     inkscape:current-layer="svg2" />
<!--Generated by the Batik Graphics2D SVG Generator-->  <defs
     id="genericDefs">
    <inkscape:perspective
       sodipodi:type="inkscape:persp3d"
       inkscape:vp_x="0 : 526.18109 : 1"
       inkscape:vp_y="0 : 1000 : 0"
       inkscape:vp_z="744.09448 : 526.18109 : 1"
       inkscape:persp3d-origin="372.04724 : 350.78739 : 1"
       id="perspective820" />
  </defs>
  <line
     x1="20"
     x2="20"
     y1="921"
     style="fill:none;stroke:#c0c0c0"
     y2="26"
     id="line11" />
  <text
     x="18"
     y="941"
     style="fill:#000000;stroke:none"
     xml:space="preserve"
     id="text13">0</text>
  <line
     x1="225"
     x2="225"
     y1="921"
     style="fill:none;stroke:#c0c0c0"
     y2="26"
     id="line15" />
  <text
     x="223"
     y="941"
     style="fill:#000000;stroke:none"
     xml:space="preserve"
     id="text17">1</text>
  <line
     x1="430"
     x2="430"
     y1="921"
     style="fill:none;stroke:#c0c0c0"
     y2="26"
     id="line19" />
  <text
     x="428"
     y="941"
     style="fill:#000000;stroke:none"
     xml:space="preserve"
     id="text21">2</text>
  <line
     x1="635"
     x2="635"
     y1="921"
     style="fill:none;stroke:#c0c0c0"
     y2="26"
     id="line23" />
  <text
     x="633"
     y="941"
     style="fill:#000000;stroke:none"
     xml:space="preserve"
     id="text25">3</text>
  <line
     x1="840"
     x2="840"
     y1="921"
     style="fill:none;stroke:#c0c0c0"
     y2="26"
     id="line27" />
  <text
     x="838"
     y="941"
     style="fill:#000000;stroke:none"
     xml:space="preserve"
     id="text29">4</text>
  <line
     x1="1045"
     x2="1045"
     y1="921"
     style="fill:none;stroke:#c0c0c0"
     y2="26"
     id="line31" />
  <text
     x="1043"
     y="941"
     style="fill:#000000;stroke:none"
     xml:space="preserve"
     id="text33">5</text>
  <line
     x1="1250"
     x2="1250"
     y1="921"
     style="fill:none;stroke:#c0c0c0"
     y2="26"
     id="line35" />
  <text
     x="1248"
     y="941"
     style="fill:#000000;stroke:none"
     xml:space="preserve"
     id="text37">6</text>
  <line
     x1="1455"
     x2="1455"
     y1="921"
     style="fill:none;stroke:#c0c0c0"
     y2="26"
     id="line39" />
  <text
     x="1453"
     y="941"
     style="fill:#000000;stroke:none"
     xml:space="preserve"
     id="text41">7</text>
  <line
     x1="1660"
     x2="1660"
     y1="921"
     style="fill:none;stroke:#c0c0c0"
     y2="26"
     id="line43" />
  <text
     x="1658"
     y="941"
     style="fill:#000000;stroke:none"
     xml:space="preserve"
     id="text45">8</text>
  <line
     x1="20"
     x2="1660"
     y1="26"
     style="fill:none;stroke:#c0c0c0"
     y2="26"
     id="line47" />
  <text
     x="3"
     y="26"
     style="fill:#000000;stroke:none"
     xml:space="preserve"
     id="text49">1,00</text>
  <line
     x1="20"
     x2="1660"
     y1="249"
     style="fill:none;stroke:#c0c0c0"
     y2="249"
     id="line51" />
  <text
     x="3"
     y="249"
     style="fill:#000000;stroke:none"
     xml:space="preserve"
     id="text53">0,75</text>
  <line
     x1="20"
     x2="1660"
     y1="472"
     style="fill:none;stroke:#c0c0c0"
     y2="472"
     id="line55" />
  <text
     x="3"
     y="472"
     style="fill:#000000;stroke:none"
     xml:space="preserve"
     id="text57">0,50</text>
  <line
     x1="20"
     x2="1660"
     y1="695"
     style="fill:none;stroke:#c0c0c0"
     y2="695"
     id="line59" />
  <text
     x="3"
     y="695"
     style="fill:#000000;stroke:none"
     xml:space="preserve"
     id="text61">0,25</text>
  <line
     x1="20"
     x2="1660"
     y1="918"
     style="fill:none;stroke:#c0c0c0"
     y2="918"
     id="line63" />
  <text
     x="3"
     y="918"
     style="fill:#000000;stroke:none"
     xml:space="preserve"
     id="text65">0,00</text>
  <polygon
     style="fill:#0db7ef;stroke:none;stroke-width:5"
     points="4,-3 -2,3 4,8 9,3 4,-3 "
     id="polygon69"
     transform="translate(18,919)" />
  <line
     x1="20"
     x2="225"
     y1="921"
     style="fill:none;stroke:#0db7ef;stroke-width:5"
     y2="921"
     id="line73" />
  <polygon
     style="fill:#0db7ef;stroke:none;stroke-width:5"
     points="4,-3 -2,3 4,8 9,3 4,-3 "
     id="polygon77"
     transform="translate(223,919)" />
  <line
     x1="225"
     x2="430"
     y1="921"
     style="fill:none;stroke:#0db7ef;stroke-width:5"
     y2="921"
     id="line81" />
  <polygon
     style="fill:#0db7ef;stroke:none;stroke-width:5"
     points="4,-3 -2,3 4,8 9,3 4,-3 "
     id="polygon85"
     transform="translate(428,919)" />
  <line
     x1="430"
     x2="635"
     y1="921"
     style="fill:none;stroke:#0db7ef;stroke-width:5"
     y2="921"
     id="line89" />
  <polygon
     style="fill:#0db7ef;stroke:none;stroke-width:5"
     points="4,-3 -2,3 4,8 9,3 4,-3 "
     id="polygon93"
     transform="translate(633,919)" />
  <line
     x1="635"
     x2="840"
     y1="921"
     style="fill:none;stroke:#0db7ef;stroke-width:5"
     y2="921"
     id="line97" />
  <polygon
     style="fill:#0db7ef;stroke:none;stroke-width:5"
     points="4,-3 -2,3 4,8 9,3 4,-3 "
     id="polygon101"
     transform="translate(838,919)" />
  <line
     x1="840"
     x2="1045"
     y1="921"
     style="fill:none;stroke:#0db7ef;stroke-width:5"
     y2="921"
     id="line105" />
  <polygon
     style="fill:#0db7ef;stroke:none;stroke-width:5"
     points="4,-3 -2,3 4,8 9,3 4,-3 "
     id="polygon109"
     transform="translate(1043,919)" />
  <line
     x1="1045"
     x2="1250"
     y1="921"
     style="fill:none;stroke:#0db7ef;stroke-width:5"
     y2="921"
     id="line113" />
  <polygon
     style="fill:#0db7ef;stroke:none;stroke-width:5"
     points="4,-3 -2,3 4,8 9,3 4,-3 "
     id="polygon117"
     transform="translate(1248,919)" />
  <line
     x1="1250"
     x2="1455"
     y1="921"
     style="fill:none;stroke:#0db7ef;stroke-width:5"
     y2="921"
     id="line121" />
  <polygon
     style="fill:#0db7ef;stroke:none;stroke-width:5"
     points="4,-3 -2,3 4,8 9,3 4,-3 "
     id="polygon125"
     transform="translate(1453,919)" />
  <line
     x1="1455"
     x2="1660"
     y1="921"
     style="fill:none;stroke:#0db7ef;stroke-width:5"
     y2="921"
     id="line129" />
  <polygon
     style="fill:#0db7ef;stroke:none;stroke-width:5"
     points="4,-3 -2,3 4,8 9,3 4,-3 "
     id="polygon133"
     transform="translate(1658,919)" />
  <polygon
     style="fill:#45774d;stroke:none;stroke-width:5"
     points="4,-3 -2,3 4,8 9,3 4,-3 "
     id="polygon137"
     transform="translate(18,919)" />
  <line
     x1="20"
     x2="225"
     y1="921"
     style="fill:none;stroke:#45774d;stroke-width:5"
     y2="921"
     id="line141" />
  <polygon
     style="fill:#45774d;stroke:none;stroke-width:5"
     points="4,-3 -2,3 4,8 9,3 4,-3 "
     id="polygon145"
     transform="translate(223,919)" />
  <line
     x1="225"
     x2="430"
     y1="921"
     style="fill:none;stroke:#45774d;stroke-width:5"
     y2="921"
     id="line149" />
  <polygon
     style="fill:#45774d;stroke:none;stroke-width:5"
     points="4,-3 -2,3 4,8 9,3 4,-3 "
     id="polygon153"
     transform="translate(428,919)" />
  <line
     x1="430"
     x2="635"
     y1="921"
     style="fill:none;stroke:#45774d;stroke-width:5"
     y2="894"
     id="line157" />
  <polygon
     style="fill:#45774d;stroke:none;stroke-width:5"
     points="4,-3 -2,3 4,8 9,3 4,-3 "
     id="polygon161"
     transform="translate(633,892)" />
  <line
     x1="635"
     x2="840"
     y1="894"
     style="fill:none;stroke:#45774d;stroke-width:5"
     y2="907"
     id="line165" />
  <polygon
     style="fill:#45774d;stroke:none;stroke-width:5"
     points="4,-3 -2,3 4,8 9,3 4,-3 "
     id="polygon169"
     transform="translate(838,905)" />
  <line
     x1="840"
     x2="1045"
     y1="907"
     style="fill:none;stroke:#45774d;stroke-width:5"
     y2="914"
     id="line173" />
  <polygon
     style="fill:#45774d;stroke:none;stroke-width:5"
     points="4,-3 -2,3 4,8 9,3 4,-3 "
     id="polygon177"
     transform="translate(1043,912)" />
  <line
     x1="1045"
     x2="1250"
     y1="914"
     style="fill:none;stroke:#45774d;stroke-width:5"
     y2="918"
     id="line181" />
  <polygon
     style="fill:#45774d;stroke:none;stroke-width:5"
     points="4,-3 -2,3 4,8 9,3 4,-3 "
     id="polygon185"
     transform="translate(1248,916)" />
  <line
     x1="1250"
     x2="1455"
     y1="918"
     style="fill:none;stroke:#45774d;stroke-width:5"
     y2="919"
     id="line189" />
  <polygon
     style="fill:#45774d;stroke:none;stroke-width:5"
     points="4,-3 -2,3 4,8 9,3 4,-3 "
     id="polygon193"
     transform="translate(1453,917)" />
  <circle
     r="4"
     style="fill:#7a6403;stroke:none;stroke-width:5"
     cx="2"
     cy="2"
     id="circle197"
     sodipodi:cx="2"
     sodipodi:cy="2"
     sodipodi:rx="4"
     sodipodi:ry="4"
     transform="translate(18,919)" />
  <line
     x1="20"
     x2="225"
     y1="921"
     style="fill:none;stroke:#7a6403;stroke-width:5"
     y2="921"
     id="line201" />
  <circle
     r="4"
     style="fill:#7a6403;stroke:none;stroke-width:5"
     cx="2"
     cy="2"
     id="circle205"
     sodipodi:cx="2"
     sodipodi:cy="2"
     sodipodi:rx="4"
     sodipodi:ry="4"
     transform="translate(223,919)" />
  <line
     x1="225"
     x2="430"
     y1="921"
     style="fill:none;stroke:#7a6403;stroke-width:5"
     y2="921"
     id="line209" />
  <circle
     r="4"
     style="fill:#7a6403;stroke:none;stroke-width:5"
     cx="2"
     cy="2"
     id="circle213"
     sodipodi:cx="2"
     sodipodi:cy="2"
     sodipodi:rx="4"
     sodipodi:ry="4"
     transform="translate(428,919)" />
  <line
     x1="430"
     x2="635"
     y1="921"
     style="fill:none;stroke:#7a6403;stroke-width:5"
     y2="921"
     id="line217" />
  <circle
     r="4"
     style="fill:#7a6403;stroke:none;stroke-width:5"
     cx="2"
     cy="2"
     id="circle221"
     sodipodi:cx="2"
     sodipodi:cy="2"
     sodipodi:rx="4"
     sodipodi:ry="4"
     transform="translate(633,919)" />
  <line
     x1="635"
     x2="840"
     y1="921"
     style="fill:none;stroke:#7a6403;stroke-width:5"
     y2="921"
     id="line225" />
  <circle
     r="4"
     style="fill:#7a6403;stroke:none;stroke-width:5"
     cx="2"
     cy="2"
     id="circle229"
     sodipodi:cx="2"
     sodipodi:cy="2"
     sodipodi:rx="4"
     sodipodi:ry="4"
     transform="translate(838,919)" />
  <line
     x1="840"
     x2="1045"
     y1="921"
     style="fill:none;stroke:#7a6403;stroke-width:5"
     y2="921"
     id="line233" />
  <circle
     r="4"
     style="fill:#7a6403;stroke:none;stroke-width:5"
     cx="2"
     cy="2"
     id="circle237"
     sodipodi:cx="2"
     sodipodi:cy="2"
     sodipodi:rx="4"
     sodipodi:ry="4"
     transform="translate(1043,919)" />
  <line
     x1="1045"
     x2="1250"
     y1="921"
     style="fill:none;stroke:#7a6403;stroke-width:5"
     y2="901"
     id="line241" />
  <circle
     r="4"
     style="fill:#7a6403;stroke:none;stroke-width:5"
     cx="2"
     cy="2"
     id="circle245"
     sodipodi:cx="2"
     sodipodi:cy="2"
     sodipodi:rx="4"
     sodipodi:ry="4"
     transform="translate(1248,899)" />
  <line
     x1="1250"
     x2="1455"
     y1="901"
     style="fill:none;stroke:#7a6403;stroke-width:5"
     y2="911"
     id="line249" />
  <circle
     r="4"
     style="fill:#7a6403;stroke:none;stroke-width:5"
     cx="2"
     cy="2"
     id="circle253"
     sodipodi:cx="2"
     sodipodi:cy="2"
     sodipodi:rx="4"
     sodipodi:ry="4"
     transform="translate(1453,909)" />
  <line
     x1="1455"
     x2="1660"
     y1="911"
     style="fill:none;stroke:#7a6403;stroke-width:5"
     y2="916"
     id="line257" />
  <circle
     r="4"
     style="fill:#7a6403;stroke:none;stroke-width:5"
     cx="2"
     cy="2"
     id="circle261"
     sodipodi:cx="2"
     sodipodi:cy="2"
     sodipodi:rx="4"
     sodipodi:ry="4"
     transform="translate(1658,914)" />
  <rect
     x="221"
     y="917"
     width="8"
     style="fill:#0f7167;stroke:none;stroke-width:5"
     height="8"
     id="rect265" />
  <line
     x1="225"
     x2="430"
     y1="921"
     style="fill:none;stroke:#0f7167;stroke-width:5"
     y2="921"
     id="line269" />
  <rect
     x="426"
     y="917"
     width="8"
     style="fill:#0f7167;stroke:none;stroke-width:5"
     height="8"
     id="rect273" />
  <line
     x1="430"
     x2="635"
     y1="921"
     style="fill:none;stroke:#0f7167;stroke-width:5"
     y2="921"
     id="line277" />
  <rect
     x="631"
     y="917"
     width="8"
     style="fill:#0f7167;stroke:none;stroke-width:5"
     height="8"
     id="rect281" />
  <line
     x1="635"
     x2="840"
     y1="921"
     style="fill:none;stroke:#0f7167;stroke-width:5"
     y2="894"
     id="line285" />
  <rect
     x="836"
     y="890"
     width="8"
     style="fill:#0f7167;stroke:none;stroke-width:5"
     height="8"
     id="rect289" />
  <line
     x1="840"
     x2="1045"
     y1="894"
     style="fill:none;stroke:#0f7167;stroke-width:5"
     y2="907"
     id="line293" />
  <rect
     x="1041"
     y="903"
     width="8"
     style="fill:#0f7167;stroke:none;stroke-width:5"
     height="8"
     id="rect297" />
  <line
     x1="1045"
     x2="1250"
     y1="907"
     style="fill:none;stroke:#0f7167;stroke-width:5"
     y2="914"
     id="line301" />
  <rect
     x="1246"
     y="910"
     width="8"
     style="fill:#0f7167;stroke:none;stroke-width:5"
     height="8"
     id="rect305" />
  <line
     x1="1250"
     x2="1455"
     y1="914"
     style="fill:none;stroke:#0f7167;stroke-width:5"
     y2="918"
     id="line309" />
  <rect
     x="1451"
     y="914"
     width="8"
     style="fill:#0f7167;stroke:none;stroke-width:5"
     height="8"
     id="rect313" />
  <line
     x1="1455"
     x2="1660"
     y1="918"
     style="fill:none;stroke:#0f7167;stroke-width:5"
     y2="919"
     id="line317" />
  <rect
     x="1656"
     y="915"
     width="8"
     style="fill:#0f7167;stroke:none;stroke-width:5"
     height="8"
     id="rect321" />
  <polygon
     style="fill:#781c8b;stroke:none;stroke-width:5"
     points="4,-3 -2,3 4,8 9,3 4,-3 "
     id="polygon325"
     transform="translate(18,756)" />
  <line
     x1="20"
     x2="225"
     y1="758"
     style="fill:none;stroke:#781c8b;stroke-width:5"
     y2="840"
     id="line329" />
  <polygon
     style="fill:#781c8b;stroke:none;stroke-width:5"
     points="4,-3 -2,3 4,8 9,3 4,-3 "
     id="polygon333"
     transform="translate(223,838)" />
  <line
     x1="225"
     x2="430"
     y1="840"
     style="fill:none;stroke:#781c8b;stroke-width:5"
     y2="573"
     id="line337" />
  <polygon
     style="fill:#781c8b;stroke:none;stroke-width:5"
     points="4,-3 -2,3 4,8 9,3 4,-3 "
     id="polygon341"
     transform="translate(428,571)" />
  <line
     x1="430"
     x2="635"
     y1="573"
     style="fill:none;stroke:#781c8b;stroke-width:5"
     y2="747"
     id="line345" />
  <polygon
     style="fill:#781c8b;stroke:none;stroke-width:5"
     points="4,-3 -2,3 4,8 9,3 4,-3 "
     id="polygon349"
     transform="translate(633,745)" />
  <line
     x1="635"
     x2="840"
     y1="747"
     style="fill:none;stroke:#781c8b;stroke-width:5"
     y2="834"
     id="line353" />
  <polygon
     style="fill:#781c8b;stroke:none;stroke-width:5"
     points="4,-3 -2,3 4,8 9,3 4,-3 "
     id="polygon357"
     transform="translate(838,832)" />
  <line
     x1="840"
     x2="1045"
     y1="834"
     style="fill:none;stroke:#781c8b;stroke-width:5"
     y2="85"
     id="line361" />
  <polygon
     style="fill:#781c8b;stroke:none;stroke-width:5"
     points="4,-3 -2,3 4,8 9,3 4,-3 "
     id="polygon365"
     transform="translate(1043,83)" />
  <line
     x1="1045"
     x2="1250"
     y1="85"
     style="fill:none;stroke:#781c8b;stroke-width:5"
     y2="503"
     id="line369" />
  <polygon
     style="fill:#781c8b;stroke:none;stroke-width:5"
     points="4,-3 -2,3 4,8 9,3 4,-3 "
     id="polygon373"
     transform="translate(1248,501)" />
  <line
     x1="1250"
     x2="1455"
     y1="503"
     style="fill:none;stroke:#781c8b;stroke-width:5"
     y2="712"
     id="line377" />
  <polygon
     style="fill:#781c8b;stroke:none;stroke-width:5"
     points="4,-3 -2,3 4,8 9,3 4,-3 "
     id="polygon381"
     transform="translate(1453,710)" />
  <line
     x1="1455"
     x2="1660"
     y1="712"
     style="fill:none;stroke:#781c8b;stroke-width:5"
     y2="352"
     id="line385" />
  <polygon
     style="fill:#781c8b;stroke:none;stroke-width:5"
     points="4,-3 -2,3 4,8 9,3 4,-3 "
     id="polygon389"
     transform="translate(1658,350)" />
  <polygon
     style="fill:#c56bf2;stroke:none;stroke-width:5"
     points="4,-3 -2,3 4,8 9,3 4,-3 "
     id="polygon393"
     transform="translate(223,919)" />
  <line
     x1="225"
     x2="430"
     y1="921"
     style="fill:none;stroke:#c56bf2;stroke-width:5"
     y2="921"
     id="line397" />
  <polygon
     style="fill:#c56bf2;stroke:none;stroke-width:5"
     points="4,-3 -2,3 4,8 9,3 4,-3 "
     id="polygon401"
     transform="translate(428,919)" />
  <line
     x1="430"
     x2="635"
     y1="921"
     style="fill:none;stroke:#c56bf2;stroke-width:5"
     y2="921"
     id="line405" />
  <polygon
     style="fill:#c56bf2;stroke:none;stroke-width:5"
     points="4,-3 -2,3 4,8 9,3 4,-3 "
     id="polygon409"
     transform="translate(633,919)" />
  <line
     x1="635"
     x2="840"
     y1="921"
     style="fill:none;stroke:#c56bf2;stroke-width:5"
     y2="921"
     id="line413" />
  <polygon
     style="fill:#c56bf2;stroke:none;stroke-width:5"
     points="4,-3 -2,3 4,8 9,3 4,-3 "
     id="polygon417"
     transform="translate(838,919)" />
  <line
     x1="840"
     x2="1045"
     y1="921"
     style="fill:none;stroke:#c56bf2;stroke-width:5"
     y2="921"
     id="line421" />
  <polygon
     style="fill:#c56bf2;stroke:none;stroke-width:5"
     points="4,-3 -2,3 4,8 9,3 4,-3 "
     id="polygon425"
     transform="translate(1043,919)" />
  <line
     x1="1045"
     x2="1250"
     y1="921"
     style="fill:none;stroke:#c56bf2;stroke-width:5"
     y2="921"
     id="line429" />
  <polygon
     style="fill:#c56bf2;stroke:none;stroke-width:5"
     points="4,-3 -2,3 4,8 9,3 4,-3 "
     id="polygon433"
     transform="translate(1248,919)" />
  <line
     x1="1250"
     x2="1455"
     y1="921"
     style="fill:none;stroke:#c56bf2;stroke-width:5"
     y2="921"
     id="line437" />
  <polygon
     style="fill:#c56bf2;stroke:none;stroke-width:5"
     points="4,-3 -2,3 4,8 9,3 4,-3 "
     id="polygon441"
     transform="translate(1453,919)" />
  <line
     x1="1455"
     x2="1660"
     y1="921"
     style="fill:none;stroke:#c56bf2;stroke-width:5"
     y2="921"
     id="line445" />
  <polygon
     style="fill:#c56bf2;stroke:none;stroke-width:5"
     points="4,-3 -2,3 4,8 9,3 4,-3 "
     id="polygon449"
     transform="translate(1658,919)" />
  <polygon
     style="fill:#71616e;stroke:none;stroke-width:5"
     points="4,-3 -2,3 4,8 9,3 4,-3 "
     id="polygon453"
     transform="translate(18,919)" />
  <line
     x1="20"
     x2="225"
     y1="921"
     style="fill:none;stroke:#71616e;stroke-width:5"
     y2="894"
     id="line457" />
  <polygon
     style="fill:#71616e;stroke:none;stroke-width:5"
     points="4,-3 -2,3 4,8 9,3 4,-3 "
     id="polygon461"
     transform="translate(223,892)" />
  <line
     x1="225"
     x2="430"
     y1="894"
     style="fill:none;stroke:#71616e;stroke-width:5"
     y2="921"
     id="line465" />
  <polygon
     style="fill:#71616e;stroke:none;stroke-width:5"
     points="4,-3 -2,3 4,8 9,3 4,-3 "
     id="polygon469"
     transform="translate(428,919)" />
  <line
     x1="430"
     x2="635"
     y1="921"
     style="fill:none;stroke:#71616e;stroke-width:5"
     y2="921"
     id="line473" />
  <polygon
     style="fill:#71616e;stroke:none;stroke-width:5"
     points="4,-3 -2,3 4,8 9,3 4,-3 "
     id="polygon477"
     transform="translate(633,919)" />
  <line
     x1="635"
     x2="840"
     y1="921"
     style="fill:none;stroke:#71616e;stroke-width:5"
     y2="907"
     id="line481" />
  <polygon
     style="fill:#71616e;stroke:none;stroke-width:5"
     points="4,-3 -2,3 4,8 9,3 4,-3 "
     id="polygon485"
     transform="translate(838,905)" />
  <line
     x1="840"
     x2="1045"
     y1="907"
     style="fill:none;stroke:#71616e;stroke-width:5"
     y2="914"
     id="line489" />
  <polygon
     style="fill:#71616e;stroke:none;stroke-width:5"
     points="4,-3 -2,3 4,8 9,3 4,-3 "
     id="polygon493"
     transform="translate(1043,912)" />
  <line
     x1="1045"
     x2="1250"
     y1="914"
     style="fill:none;stroke:#71616e;stroke-width:5"
     y2="918"
     id="line497" />
  <polygon
     style="fill:#71616e;stroke:none;stroke-width:5"
     points="4,-3 -2,3 4,8 9,3 4,-3 "
     id="polygon501"
     transform="translate(1248,916)" />
  <line
     x1="1250"
     x2="1455"
     y1="918"
     style="fill:none;stroke:#71616e;stroke-width:5"
     y2="919"
     id="line505" />
  <polygon
     style="fill:#71616e;stroke:none;stroke-width:5"
     points="4,-3 -2,3 4,8 9,3 4,-3 "
     id="polygon509"
     transform="translate(1453,917)" />
  <polygon
     style="fill:#57265f;stroke:none;stroke-width:5"
     points="4,-3 -2,3 4,8 9,3 4,-3 "
     id="polygon513"
     transform="translate(18,471)" />
  <line
     x1="20"
     x2="225"
     y1="473"
     style="fill:none;stroke:#57265f;stroke-width:5"
     y2="921"
     id="line517" />
  <polygon
     style="fill:#57265f;stroke:none;stroke-width:5"
     points="4,-3 -2,3 4,8 9,3 4,-3 "
     id="polygon521"
     transform="translate(223,919)" />
  <line
     x1="225"
     x2="430"
     y1="921"
     style="fill:none;stroke:#57265f;stroke-width:5"
     y2="697"
     id="line525" />
  <polygon
     style="fill:#57265f;stroke:none;stroke-width:5"
     points="4,-3 -2,3 4,8 9,3 4,-3 "
     id="polygon529"
     transform="translate(428,695)" />
  <line
     x1="430"
     x2="635"
     y1="697"
     style="fill:none;stroke:#57265f;stroke-width:5"
     y2="235"
     id="line533" />
  <polygon
     style="fill:#57265f;stroke:none;stroke-width:5"
     points="4,-3 -2,3 4,8 9,3 4,-3 "
     id="polygon537"
     transform="translate(633,233)" />
  <line
     x1="635"
     x2="840"
     y1="235"
     style="fill:none;stroke:#57265f;stroke-width:5"
     y2="921"
     id="line541" />
  <polygon
     style="fill:#57265f;stroke:none;stroke-width:5"
     points="4,-3 -2,3 4,8 9,3 4,-3 "
     id="polygon545"
     transform="translate(838,919)" />
  <line
     x1="840"
     x2="1045"
     y1="921"
     style="fill:none;stroke:#57265f;stroke-width:5"
     y2="578"
     id="line549" />
  <polygon
     style="fill:#57265f;stroke:none;stroke-width:5"
     points="4,-3 -2,3 4,8 9,3 4,-3 "
     id="polygon553"
     transform="translate(1043,576)" />
  <line
     x1="1045"
     x2="1250"
     y1="578"
     style="fill:none;stroke:#57265f;stroke-width:5"
     y2="32"
     id="line557" />
  <polygon
     style="fill:#57265f;stroke:none;stroke-width:5"
     points="4,-3 -2,3 4,8 9,3 4,-3 "
     id="polygon561"
     transform="translate(1248,30)" />
  <line
     x1="1250"
     x2="1455"
     y1="32"
     style="fill:none;stroke:#57265f;stroke-width:5"
     y2="477"
     id="line565" />
  <polygon
     style="fill:#57265f;stroke:none;stroke-width:5"
     points="4,-3 -2,3 4,8 9,3 4,-3 "
     id="polygon569"
     transform="translate(1453,475)" />
  <line
     x1="1455"
     x2="1660"
     y1="477"
     style="fill:none;stroke:#57265f;stroke-width:5"
     y2="699"
     id="line573" />
  <polygon
     style="fill:#57265f;stroke:none;stroke-width:5"
     points="4,-3 -2,3 4,8 9,3 4,-3 "
     id="polygon577"
     transform="translate(1658,697)" />
  <polygon
     style="fill:#8bd247;stroke:none;stroke-width:5"
     points="4,-3 -2,3 4,8 9,3 4,-3 "
     id="polygon581"
     transform="translate(18,783)" />
  <line
     x1="20"
     x2="225"
     y1="785"
     style="fill:none;stroke:#8bd247;stroke-width:5"
     y2="218"
     id="line585" />
  <polygon
     style="fill:#8bd247;stroke:none;stroke-width:5"
     points="4,-3 -2,3 4,8 9,3 4,-3 "
     id="polygon589"
     transform="translate(223,216)" />
  <line
     x1="225"
     x2="430"
     y1="218"
     style="fill:none;stroke:#8bd247;stroke-width:5"
     y2="569"
     id="line593" />
  <polygon
     style="fill:#8bd247;stroke:none;stroke-width:5"
     points="4,-3 -2,3 4,8 9,3 4,-3 "
     id="polygon597"
     transform="translate(428,567)" />
  <line
     x1="430"
     x2="635"
     y1="569"
     style="fill:none;stroke:#8bd247;stroke-width:5"
     y2="745"
     id="line601" />
  <polygon
     style="fill:#8bd247;stroke:none;stroke-width:5"
     points="4,-3 -2,3 4,8 9,3 4,-3 "
     id="polygon605"
     transform="translate(633,743)" />
  <line
     x1="635"
     x2="840"
     y1="745"
     style="fill:none;stroke:#8bd247;stroke-width:5"
     y2="266"
     id="line609" />
  <polygon
     style="fill:#8bd247;stroke:none;stroke-width:5"
     points="4,-3 -2,3 4,8 9,3 4,-3 "
     id="polygon613"
     transform="translate(838,264)" />
  <line
     x1="840"
     x2="1045"
     y1="266"
     style="fill:none;stroke:#8bd247;stroke-width:5"
     y2="593"
     id="line617" />
  <polygon
     style="fill:#8bd247;stroke:none;stroke-width:5"
     points="4,-3 -2,3 4,8 9,3 4,-3 "
     id="polygon621"
     transform="translate(1043,591)" />
  <line
     x1="1045"
     x2="1250"
     y1="593"
     style="fill:none;stroke:#8bd247;stroke-width:5"
     y2="757"
     id="line625" />
  <polygon
     style="fill:#8bd247;stroke:none;stroke-width:5"
     points="4,-3 -2,3 4,8 9,3 4,-3 "
     id="polygon629"
     transform="translate(1248,755)" />
  <line
     x1="1250"
     x2="1455"
     y1="757"
     style="fill:none;stroke:#8bd247;stroke-width:5"
     y2="26"
     id="line633" />
  <polygon
     style="fill:#8bd247;stroke:none;stroke-width:5"
     points="4,-3 -2,3 4,8 9,3 4,-3 "
     id="polygon637"
     transform="translate(1453,24)" />
  <line
     x1="1455"
     x2="1660"
     y1="26"
     style="fill:none;stroke:#8bd247;stroke-width:5"
     y2="474"
     id="line641" />
  <polygon
     style="fill:#8bd247;stroke:none;stroke-width:5"
     points="4,-3 -2,3 4,8 9,3 4,-3 "
     id="polygon645"
     transform="translate(1658,472)" />
  <rect
     x="16"
     y="917"
     width="8"
     style="fill:#c8cbce;stroke:none;stroke-width:5"
     height="8"
     id="rect649" />
  <line
     x1="20"
     x2="225"
     y1="921"
     style="fill:none;stroke:#c8cbce;stroke-width:5"
     y2="921"
     id="line653" />
  <rect
     x="221"
     y="917"
     width="8"
     style="fill:#c8cbce;stroke:none;stroke-width:5"
     height="8"
     id="rect657" />
  <line
     x1="225"
     x2="430"
     y1="921"
     style="fill:none;stroke:#c8cbce;stroke-width:5"
     y2="921"
     id="line661" />
  <rect
     x="426"
     y="917"
     width="8"
     style="fill:#c8cbce;stroke:none;stroke-width:5"
     height="8"
     id="rect665" />
  <line
     x1="430"
     x2="635"
     y1="921"
     style="fill:none;stroke:#c8cbce;stroke-width:5"
     y2="921"
     id="line669" />
  <rect
     x="631"
     y="917"
     width="8"
     style="fill:#c8cbce;stroke:none;stroke-width:5"
     height="8"
     id="rect673" />
  <line
     x1="635"
     x2="840"
     y1="921"
     style="fill:none;stroke:#c8cbce;stroke-width:5"
     y2="921"
     id="line677" />
  <rect
     x="836"
     y="917"
     width="8"
     style="fill:#c8cbce;stroke:none;stroke-width:5"
     height="8"
     id="rect681" />
  <line
     x1="840"
     x2="1045"
     y1="921"
     style="fill:none;stroke:#c8cbce;stroke-width:5"
     y2="921"
     id="line685" />
  <rect
     x="1041"
     y="917"
     width="8"
     style="fill:#c8cbce;stroke:none;stroke-width:5"
     height="8"
     id="rect689" />
  <line
     x1="1045"
     x2="1250"
     y1="921"
     style="fill:none;stroke:#c8cbce;stroke-width:5"
     y2="921"
     id="line693" />
  <rect
     x="1246"
     y="917"
     width="8"
     style="fill:#c8cbce;stroke:none;stroke-width:5"
     height="8"
     id="rect697" />
  <line
     x1="1250"
     x2="1455"
     y1="921"
     style="fill:none;stroke:#c8cbce;stroke-width:5"
     y2="921"
     id="line701" />
  <rect
     x="1451"
     y="917"
     width="8"
     style="fill:#c8cbce;stroke:none;stroke-width:5"
     height="8"
     id="rect705" />
  <line
     x1="1455"
     x2="1660"
     y1="921"
     style="fill:none;stroke:#c8cbce;stroke-width:5"
     y2="921"
     id="line709" />
  <rect
     x="1656"
     y="917"
     width="8"
     style="fill:#c8cbce;stroke:none;stroke-width:5"
     height="8"
     id="rect713" />
  <line
     x1="20.012842"
     x2="35.398117"
     y1="965.48804"
     style="font-size:32px;fill:none;stroke:#0db7ef;stroke-width:1.02568495"
     y2="965.48804"
     id="line717" />
  <polygon
     style="font-size:32px;fill:#0db7ef;stroke:none"
     points="4,-3 -2,3 4,8 9,3 4,-3 "
     id="polygon721"
     transform="matrix(1.0256849,0,0,1.0256849,25.141267,963.43664)" />
  <text
     xml:space="preserve"
     x="38.47517"
     y="969.59076"
     style="font-size:32.82191849px;stroke:none"
     id="text725">atmosphere protocol</text>
  <line
     x1="349.25769"
     x2="364.64297"
     y1="965.48804"
     style="font-size:32px;fill:none;stroke:#45774d;stroke-width:1.02568495"
     y2="965.48804"
     id="line727" />
  <polygon
     style="font-size:32px;fill:#45774d;stroke:none"
     points="4,-3 -2,3 4,8 9,3 4,-3 "
     id="polygon731"
     transform="matrix(1.0256849,0,0,1.0256849,354.38612,963.43664)" />
  <text
     xml:space="preserve"
     x="367.72003"
     y="969.59076"
     style="font-size:32.82191849px;stroke:none"
     id="text735">epc property</text>
  <line
     x1="561.57446"
     x2="576.95972"
     y1="965.48804"
     style="font-size:32px;fill:none;stroke:#7a6403;stroke-width:1.02568495"
     y2="965.48804"
     id="line737" />
  <circle
     r="4"
     style="font-size:32px;fill:#7a6403;stroke:none"
     cx="2"
     cy="2"
     id="circle741"
     sodipodi:cx="2"
     sodipodi:cy="2"
     sodipodi:rx="4"
     sodipodi:ry="4"
     transform="matrix(1.0256849,0,0,1.0256849,566.70289,963.43664)" />
  <text
     xml:space="preserve"
     x="580.0368"
     y="969.59076"
     style="font-size:32.82191849px;stroke:none"
     id="text745">gas greenhouse</text>
  <line
     x1="827.22687"
     x2="842.61212"
     y1="965.48804"
     style="font-size:32px;fill:none;stroke:#0f7167;stroke-width:1.02568495"
     y2="965.48804"
     id="line747" />
  <rect
     x="830.30389"
     y="961.38525"
     width="8.2054796"
     style="font-size:32px;fill:#0f7167;stroke:none"
     height="8.2054796"
     id="rect751" />
  <text
     xml:space="preserve"
     x="845.68921"
     y="969.59076"
     style="font-size:32.82191849px;stroke:none"
     id="text755">hot heater</text>
  <line
     x1="1005.696"
     x2="1021.0813"
     y1="965.48804"
     style="font-size:32px;fill:none;stroke:#781c8b;stroke-width:1.02568495"
     y2="965.48804"
     id="line757" />
  <polygon
     style="font-size:32px;fill:#781c8b;stroke:none"
     points="4,-3 -2,3 4,8 9,3 4,-3 "
     id="polygon761"
     transform="matrix(1.0256849,0,0,1.0256849,1010.8244,963.43664)" />
  <text
     xml:space="preserve"
     x="1024.1583"
     y="969.59076"
     style="font-size:32.82191849px;stroke:none"
     id="text765">kg co2</text>
  <line
     x1="1132.881"
     x2="1148.2662"
     y1="965.48804"
     style="font-size:32px;fill:none;stroke:#c56bf2;stroke-width:1.02568495"
     y2="965.48804"
     id="line767" />
  <polygon
     style="font-size:32px;fill:#c56bf2;stroke:none"
     points="4,-3 -2,3 4,8 9,3 4,-3 "
     id="polygon771"
     transform="matrix(1.0256849,0,0,1.0256849,1138.0094,963.43664)" />
  <text
     xml:space="preserve"
     x="1151.3433"
     y="969.59076"
     style="font-size:32.82191849px;stroke:none"
     id="text775">materials building</text>
  <line
     x1="1419.047"
     x2="1434.4323"
     y1="965.48804"
     style="font-size:32px;fill:none;stroke:#71616e;stroke-width:1.02568495"
     y2="965.48804"
     id="line777" />
  <polygon
     style="font-size:32px;fill:#71616e;stroke:none"
     points="4,-3 -2,3 4,8 9,3 4,-3 "
     id="polygon781"
     transform="matrix(1.0256849,0,0,1.0256849,1424.1755,963.43664)" />
  <text
     xml:space="preserve"
     x="1437.5094"
     y="969.59076"
     style="font-size:32.82191849px;stroke:none"
     id="text785">school students</text>
  <line
     x1="20.012842"
     x2="35.398117"
     y1="1011.6439"
     style="font-size:32px;fill:none;stroke:#57265f;stroke-width:1.02568495"
     y2="1011.6439"
     id="line787" />
  <polygon
     style="font-size:32px;fill:#57265f;stroke:none"
     points="4,-3 -2,3 4,8 9,3 4,-3 "
     id="polygon791"
     transform="matrix(1.0256849,0,0,1.0256849,25.141267,1009.5925)" />
  <text
     xml:space="preserve"
     x="38.47517"
     y="1015.7466"
     style="font-size:32.82191849px;stroke:none"
     id="text795">setback thermostat</text>
  <line
     x1="327.71832"
     x2="343.10358"
     y1="1011.6439"
     style="font-size:32px;fill:none;stroke:#8bd247;stroke-width:1.02568495"
     y2="1011.6439"
     id="line797" />
  <polygon
     style="font-size:32px;fill:#8bd247;stroke:none"
     points="4,-3 -2,3 4,8 9,3 4,-3 "
     id="polygon801"
     transform="matrix(1.0256849,0,0,1.0256849,332.84673,1009.5925)" />
  <text
     xml:space="preserve"
     x="346.18063"
     y="1015.7466"
     style="font-size:32.82191849px;stroke:none"
     id="text805">trips vehicle</text>
  <line
     x1="530.80389"
     x2="546.18921"
     y1="1011.6439"
     style="font-size:32px;fill:none;stroke:#c8cbce;stroke-width:1.02568495"
     y2="1011.6439"
     id="line807" />
  <rect
     x="533.88098"
     y="1007.5411"
     width="8.2054796"
     style="font-size:32px;fill:#c8cbce;stroke:none"
     height="8.2054796"
     id="rect811" />
  <text
     xml:space="preserve"
     x="549.26624"
     y="1015.7466"
     style="font-size:32.82191849px;stroke:none"
     id="text815">windows insulation</text>
</svg>
